<svg width="24" height="24" viewBox="0 0 24 24" fill="none" xmlns="http://www.w3.org/2000/svg">
<path d="M2 5.33333C2 3.49238 3.49238 2 5.33333 2H18.6667C20.5076 2 22 3.49238 22 5.33333V18.6667C22 20.5076 20.5076 22 18.6667 22H5.33333C3.49238 22 2 20.5076 2 18.6667V5.33333Z" fill="white"/>
<path fill-rule="evenodd" clip-rule="evenodd" d="M18.6667 3.66667H5.33333C4.41286 3.66667 3.66667 4.41286 3.66667 5.33333V18.6667C3.66667 19.5871 4.41286 20.3333 5.33333 20.3333H18.6667C19.5871 20.3333 20.3333 19.5871 20.3333 18.6667V5.33333C20.3333 4.41286 19.5871 3.66667 18.6667 3.66667ZM5.33333 2C3.49238 2 2 3.49238 2 5.33333V18.6667C2 20.5076 3.49238 22 5.33333 22H18.6667C20.5076 22 22 20.5076 22 18.6667V5.33333C22 3.49238 20.5076 2 18.6667 2H5.33333Z" fill="black" fill-opacity="0.4"/>
</svg>
