<svg width="143" height="125" viewBox="0 0 143 125" fill="none" xmlns="http://www.w3.org/2000/svg">
<circle cx="36" cy="71" r="36" fill="#ED1B2E"/>
<path fill-rule="evenodd" clip-rule="evenodd" d="M85.0705 24.1799C90.1049 24.1799 92.4533 27.5338 92.4533 34.7268C92.4533 35.894 93.3955 36.8362 94.5627 36.8362C95.7299 36.8362 96.672 35.894 96.672 34.7268C96.672 30.1987 97.9095 27.0627 100.356 25.3963C102.128 24.194 103.97 24.1799 104.048 24.1799H104.069H104.111H104.118C105.25 24.1448 106.164 23.2167 106.164 22.0706C106.164 20.9034 105.222 19.9612 104.055 19.9612C102.213 19.9612 100.757 19.3987 99.6041 18.2385C96.7775 15.3909 96.672 9.97681 96.672 9.47056V9.41431C96.672 8.25415 95.7369 7.31196 94.5767 7.30493H94.5627C93.4095 7.30493 92.4674 8.23306 92.4533 9.38618V9.50571C92.4392 14.3081 91.5814 17.4581 89.8869 18.8713C88.5791 19.9612 86.7931 19.9612 85.0705 19.9612C83.9033 19.9612 82.9611 20.9034 82.9611 22.0706C82.9611 23.2377 83.9103 24.1799 85.0705 24.1799ZM133.938 22.0707H122.688C116.627 22.0707 113.603 22.5839 109.019 23.3644L108.154 23.5121C106.621 23.7722 105.595 25.2207 105.848 26.7535C106.108 28.2863 107.556 29.3129 109.089 29.0597L109.961 28.9121C113.596 28.2933 116.057 27.8785 119.875 27.7449V86.8285C112.556 87.1449 93.0579 88.9027 83.3899 98.5355L83.3125 98.6129V37.7222C84.1211 37.2652 85.3024 36.6324 86.8282 35.9011C88.2344 35.2332 88.8251 33.5597 88.1641 32.1535C87.4961 30.7543 85.8227 30.1566 84.4165 30.8175C82.8063 31.5839 81.5336 32.2589 80.6266 32.7793C76.0563 29.798 61.9586 22.0707 38.3126 22.0707H27.0626C25.5087 22.0707 24.2501 23.3293 24.2501 24.8832V98.0082C24.2501 99.5269 25.4594 100.771 26.9782 100.821C40.7735 101.236 69.2501 105.215 69.2501 114.883C69.2501 116.437 70.5086 117.696 72.0625 117.696H80.5H88.9376C90.4915 117.696 91.7501 116.437 91.7501 114.883C91.7501 105.229 120.227 101.236 134.022 100.821C135.541 100.771 136.75 99.5269 136.75 98.0082V24.8832C136.75 23.3293 135.491 22.0707 133.938 22.0707ZM41.1251 27.7378C61.818 28.3285 74.1438 35.2894 77.6875 37.6027V99.0277C74.179 95.4066 68.6594 92.1019 60.1516 89.7675C52.5579 87.6793 45.0555 87.0464 41.1251 86.8496V27.7378ZM50.118 97.8675C41.9758 96.2222 33.9391 95.5683 29.8751 95.3293V27.6957H35.5001V89.5707C35.5001 91.1246 36.7587 92.3832 38.3126 92.3832C38.6993 92.3832 76.7665 92.6433 77.6665 112.071H74.5024C72.7235 105.56 64.5461 100.793 50.118 97.8675ZM131.125 95.3293C127.054 95.5683 119.017 96.2222 110.882 97.8675C96.461 100.786 88.2766 105.56 86.4977 112.071H83.3125C83.3125 108.358 84.6344 105.236 87.3555 102.529C97.4313 92.4816 122.167 92.3832 122.673 92.3832H122.688C123.433 92.3832 124.15 92.0879 124.677 91.5605C125.205 91.0332 125.507 90.316 125.507 89.5707V27.6957H131.132V95.3293H131.125ZM110.685 56.1581C94.3306 58.0495 87.2712 64.7433 86.9759 65.0245C85.8579 66.1073 85.8368 67.8862 86.9126 69.0042C87.461 69.5737 88.1993 69.855 88.9306 69.855C89.6337 69.855 90.3438 69.5878 90.8923 69.0605C90.9485 69.0042 97.0868 63.3933 111.332 61.748C112.872 61.5722 113.983 60.173 113.8 58.6331C113.617 57.0862 112.232 55.9823 110.685 56.1581ZM70.1188 69.0786C69.9136 68.8943 63.6582 63.2781 49.2602 61.7055C47.7203 61.5368 46.6024 60.1446 46.7711 58.6047C46.9399 57.0579 48.332 55.9469 49.8719 56.1157C66.543 57.9368 73.7289 64.743 74.0242 65.0313C75.1422 66.1141 75.1703 67.893 74.0875 69.011C73.5391 69.5735 72.8008 69.8618 72.0695 69.8618C71.3664 69.8618 70.6633 69.6016 70.1219 69.0813L70.1188 69.0786ZM110.699 70.108C94.3164 71.9361 87.2429 78.8268 86.9476 79.115C85.8507 80.2049 85.8507 81.9697 86.9335 83.0666C87.482 83.6221 88.2062 83.9033 88.9375 83.9033C89.6476 83.9033 90.3578 83.6361 90.9062 83.1088L90.9118 83.1037C91.1302 82.9025 97.2587 77.2591 111.325 75.6908C112.872 75.5221 113.983 74.1299 113.807 72.583C113.631 71.0502 112.253 69.9392 110.699 70.108ZM74.0524 83.1018C73.504 83.6502 72.7868 83.9244 72.0625 83.9244C71.3524 83.9244 70.6422 83.6502 70.0797 83.1229C69.9461 82.9893 63.7094 77.1815 49.2602 75.6627C47.7133 75.501 46.5954 74.1159 46.7571 72.569C46.9258 71.0221 48.318 69.9042 49.8508 70.0659C66.55 71.8167 73.75 78.8268 74.0454 79.1221C75.1493 80.219 75.1493 82.0049 74.0524 83.1018ZM105.109 36.105C105.123 34.9448 106.101 34.0307 107.233 34.0237C108.393 34.0307 109.328 34.9729 109.328 36.1401V36.1753C109.335 36.7448 109.518 38.4464 110.298 39.2339C110.488 39.4237 110.791 39.6487 111.437 39.6487C112.605 39.6487 113.547 40.5909 113.547 41.7581C113.547 42.9253 112.605 43.8675 111.437 43.8675C110.805 43.8815 109.328 44.2542 109.328 47.3831C109.328 48.5503 108.386 49.4925 107.219 49.4925C106.051 49.4925 105.109 48.5503 105.109 47.3831C105.109 43.8675 103.787 43.8675 103 43.8675C101.833 43.8675 100.891 42.9253 100.891 41.7581C100.891 40.5909 101.833 39.6487 103 39.6487C104.35 39.6487 105.102 39.6487 105.109 36.1964V36.105Z" fill="black"/>
</svg>
